<svg xmlns="http://www.w3.org/2000/svg" width="166" height="40" viewBox="0 0 166 40">
    <g fill="none" fill-rule="evenodd">
        <path fill="#5BC2E7" d="M40 0h126v40H40z"/>
        <path fill="#1A5A96" d="M0 0h40v40H0z"/>
        <text fill="#FFF" font-family="MyriadPro-Semibold, Myriad Pro" font-size="16" font-weight="500">
            <tspan x="59.068" y="25">Edit Request</tspan>
        </text>
        <path fill="#FFF" fill-rule="nonzero" d="M24.668 22.15l1.166-1.166a.293.293 0 0 1 .5.208v5.3a1.75 1.75 0 0 1-1.75 1.75H11.75a1.75 1.75 0 0 1-1.75-1.75V13.66c0-.966.784-1.75 1.75-1.75h9.972c.258 0 .39.314.207.5l-1.166 1.166a.289.289 0 0 1-.208.084H11.75v12.834h12.834v-4.138c0-.077.029-.15.084-.205zm5.709-6.93l-9.574 9.574-3.296.365a1.506 1.506 0 0 1-1.663-1.663l.365-3.296 9.574-9.574a2.128 2.128 0 0 1 3.015 0l1.575 1.575c.835.835.835 2.188.004 3.019zm-3.602 1.127l-2.118-2.119-6.775 6.778-.266 2.38 2.381-.265 6.778-6.774zm2.362-2.906l-1.575-1.575a.38.38 0 0 0-.54 0l-1.126 1.126 2.118 2.119 1.127-1.127a.388.388 0 0 0-.004-.543z"/>
    </g>
</svg>
