<?xml version="1.0" encoding="UTF-8"?>
<svg width="151px" height="40px" viewBox="0 0 151 40" version="1.1" xmlns="http://www.w3.org/2000/svg" xmlns:xlink="http://www.w3.org/1999/xlink">
    <!-- Generator: Sketch 55.1 (78136) - https://sketchapp.com -->
    <title>save button</title>
    <desc>Created with Sketch.</desc>
    <g id="Symbols" stroke="none" stroke-width="1" fill="none" fill-rule="evenodd">
        <g id="save-button">
            <g>
                <rect id="Rectangle-3-Copy" fill="#5BC2E7" x="40" y="0" width="110.894531" height="40"></rect>
                <rect id="Rectangle-8" fill="#1A5A96" x="0" y="0" width="40" height="40"></rect>
                <polyline id="Path-3" stroke="#FFFFFF" stroke-width="2" points="15 17.1361182 19.4319409 21.5680591 29 12"></polyline>
                <path d="M24.6675053,22.1504586 L25.8341972,20.9837667 C26.0164928,20.8014711 26.3336872,20.929078 26.3336872,21.1915837 L26.3336872,26.4927402 C26.3336872,27.458907 25.5498161,28.2427781 24.5836493,28.2427781 L11.7500379,28.2427781 C10.7838711,28.2427781 10,27.458907 10,26.4927402 L10,13.6591288 C10,12.6929621 10.7838711,11.9090909 11.7500379,11.9090909 L21.7216081,11.9090909 C21.9804679,11.9090909 22.1117207,12.2226394 21.9294251,12.4085809 L20.7627332,13.5752728 C20.7080445,13.6299615 20.6351263,13.6591288 20.5549162,13.6591288 L11.7500379,13.6591288 L11.7500379,26.4927402 L24.5836493,26.4927402 L24.5836493,22.3546297 C24.5836493,22.2780656 24.6128166,22.2051473 24.6675053,22.1504586 Z" id="Shape" fill="#FFFFFF" fill-rule="nonzero"></path>
                <text id="Save-Edits" font-family="MyriadPro-Semibold, Myriad Pro" font-size="16" font-weight="500" fill="#FFFFFF">
                    <tspan x="53.476" y="25">Save Edits</tspan>
                </text>
            </g>
        </g>
    </g>
</svg>