<svg xmlns="http://www.w3.org/2000/svg" width="1920" height="186" viewBox="0 0 1920 186">
    <g fill="none" fill-rule="evenodd">
        <path fill="#F2F2F2" d="M0 54h1920v131.117H0z"/>
        <text fill="#E01E36" font-family="MyriadPro-Semibold, Myriad Pro" font-size="34" font-weight="500">
            <tspan x="49" y="31">NR 1149263</tspan>
        </text>
        <path fill="#5BC2E7" d="M1530 0h133v40h-133z"/>
        <path fill="#1A5A96" d="M1490 0h40v40h-40z"/>
        <text fill="#FFF" font-family="MyriadPro-Semibold, Myriad Pro" font-size="16" font-weight="500" transform="translate(1490)">
            <tspan x="60.1" y="25">Hold Request</tspan>
        </text>
        <g fill="#FFF">
            <path d="M1504 11h3v16h-3zM1513 11h3v16h-3z"/>
        </g>
        <path fill="#5BC2E7" d="M1344 0h126v40h-126z"/>
        <path fill="#1A5A96" d="M1304 0h40v40h-40z"/>
        <text fill="#FFF" font-family="MyriadPro-Semibold, Myriad Pro" font-size="16" font-weight="500" transform="translate(1304)">
            <tspan x="59.068" y="25">Edit Request</tspan>
        </text>
        <path fill="#FFF" fill-rule="nonzero" d="M1328.668 22.15l1.166-1.166a.293.293 0 0 1 .5.208v5.3a1.75 1.75 0 0 1-1.75 1.75h-12.834a1.75 1.75 0 0 1-1.75-1.75V13.66c0-.966.784-1.75 1.75-1.75h9.972c.258 0 .39.314.207.5l-1.166 1.166a.289.289 0 0 1-.208.084h-8.805v12.834h12.834v-4.138c0-.077.029-.15.084-.205zm5.709-6.93l-9.574 9.574-3.296.365a1.506 1.506 0 0 1-1.663-1.663l.365-3.296 9.574-9.574a2.128 2.128 0 0 1 3.015 0l1.575 1.575c.835.835.835 2.188.004 3.019zm-3.602 1.127l-2.118-2.119-6.775 6.778-.266 2.38 2.381-.265 6.778-6.774zm2.362-2.906l-1.575-1.575a.38.38 0 0 0-.54 0l-1.126 1.126 2.118 2.119 1.127-1.127a.388.388 0 0 0-.004-.543z"/>
        <path fill="#5BC2E7" d="M1723 0h146v40h-146z"/>
        <path fill="#1A5A96" d="M1683 0h40v40h-40z"/>
        <g fill="#FFF">
            <path d="M1694.587 14.029l1.886-1.886 13.829 13.828-1.886 1.886z"/>
            <path d="M1708.416 12.143l1.886 1.886-13.829 13.828-1.886-1.886z"/>
        </g>
        <text fill="#FFF" font-family="MyriadPro-Semibold, Myriad Pro" font-size="16" font-weight="500" transform="translate(1683)">
            <tspan x="59.572" y="25">Cancel Request</tspan>
        </text>
        <path stroke="#BCBEC5" stroke-linecap="square" d="M231.25 77v90M498 77v90M787 77v90M1157 77v90"/>
        <text fill="#494949" font-family="MyriadPro-Regular, Myriad Pro" font-size="24">
            <tspan x="261" y="31">Sole Proprietorship/General Partnership Registration (BC)</tspan>
        </text>
        <path stroke="#BCBEC5" stroke-linecap="square" d="M1527 77v90"/>
        <text fill="#494949" font-family="MyriadPro-Semibold, Myriad Pro" font-size="16" font-weight="500">
            <tspan x="1558" y="83">Applicant Information: </tspan> <tspan x="1558" y="107" font-family="MyriadPro-Regular, Myriad Pro" font-weight="normal">JONATHAN WOODWARDS</tspan> <tspan x="1558" y="131" font-family="MyriadPro-Regular, Myriad Pro" font-weight="normal">555 52nd Street, Vancouver, BC</tspan> <tspan x="1558" y="155">Client: </tspan> <tspan x="1605.728" y="155" font-family="MyriadPro-Regular, Myriad Pro" font-weight="normal">JONATHAN WOODWARDS</tspan>
        </text>
        <text fill="#494949" font-family="MyriadPro-Semibold, Myriad Pro" font-size="16" font-weight="500">
            <tspan x="529" y="84">AB: </tspan> <tspan x="555.48" y="84" font-family="MyriadPro-Regular, Myriad Pro" font-weight="normal">Requested</tspan> <tspan x="529" y="108" font-family="MyriadPro-Regular, Myriad Pro" font-weight="normal">123456789</tspan> <tspan x="529" y="132" font-family="MyriadPro-Regular, Myriad Pro" font-weight="normal">10DIGITNAM</tspan> <tspan x="529" y="156" font-family="MyriadPro-Regular, Myriad Pro" font-weight="normal">2019-03-25</tspan>
        </text>
        <text fill="#494949" font-family="MyriadPro-Semibold, Myriad Pro" font-size="16" font-weight="500">
            <tspan x="660" y="84">SK: </tspan> <tspan x="684.704" y="84" font-family="MyriadPro-Regular, Myriad Pro" font-weight="normal">Requested</tspan> <tspan x="660" y="108" font-family="MyriadPro-Regular, Myriad Pro" font-weight="normal">123456789</tspan> <tspan x="660" y="132" font-family="MyriadPro-Regular, Myriad Pro" font-weight="normal">10DIGITNAM</tspan> <tspan x="660" y="156" font-family="MyriadPro-Regular, Myriad Pro" font-weight="normal">2019-03-24</tspan>
        </text>
        <text fill="#494949" font-family="MyriadPro-Semibold, Myriad Pro" font-size="16" font-weight="500">
            <tspan x="1186" y="83">Nature of Business: </tspan> <tspan x="1186" y="107" font-family="MyriadPro-Regular, Myriad Pro" font-weight="normal">Crafts, Housewares, Textiles, Lorem Ipsum, Sit </tspan> <tspan x="1186" y="131" font-family="MyriadPro-Regular, Myriad Pro" font-weight="normal">Amet, Example of Extra Long List, Crafting </tspan> <tspan x="1186" y="155" font-family="MyriadPro-Regular, Myriad Pro" font-weight="normal">Supplies, Crafts, Housewares, Textiles … </tspan>
        </text>
        <text fill="#494949" font-family="MyriadPro-Semibold, Myriad Pro" font-size="16" font-weight="500">
            <tspan x="816" y="83">Additional Information: </tspan> <tspan x="816" y="107" font-family="MyriadPro-Regular, Myriad Pro" font-weight="normal">Client retrying as a Trade Name rather than BC </tspan> <tspan x="816" y="131" font-family="MyriadPro-Regular, Myriad Pro" font-weight="normal">Corp in previous NR 3488907. This is an extra </tspan> <tspan x="816" y="155" font-family="MyriadPro-Regular, Myriad Pro" font-weight="normal">long sentence tha can be expanded to see …</tspan>
        </text>
        <g>
            <text fill="#1A5A96" font-family="MyriadPro-Regular, Myriad Pro" font-size="16" transform="translate(1390 78)">
                <tspan x="69.672" y="12">Show</tspan>
            </text>
            <g fill="#5BC2E7">
                <path d="M1453 83v2h-14v-2z"/>
                <path d="M1445 77h2v14h-2z"/>
            </g>
        </g>
        <g>
            <text fill="#1A5A96" font-family="MyriadPro-Regular, Myriad Pro" font-size="16" transform="translate(1019 78)">
                <tspan x="69.672" y="12">Show</tspan>
            </text>
            <g fill="#5BC2E7">
                <path d="M1082 83v2h-14v-2z"/>
                <path d="M1074 77h2v14h-2z"/>
            </g>
        </g>
        <path fill="#DDD" d="M256 122h180v22H256z"/>
        <text fill="#494949" font-family="MyriadPro-Semibold, Myriad Pro" font-size="16" font-weight="500">
            <tspan x="262" y="83">Submission: </tspan> <tspan x="349.136" y="83" font-family="MyriadPro-Regular, Myriad Pro" font-weight="normal">2019-03-25 </tspan> <tspan x="431.408" y="83" font-family="MyriadPro-It, Myriad Pro" font-style="italic" font-weight="normal">10:00</tspan>  <tspan x="262" y="107">Decision:</tspan> <tspan x="325.184" y="107" font-family="MyriadPro-Regular, Myriad Pro" font-weight="normal"> 2019-03-27 </tspan> <tspan x="407.456" y="107" font-family="MyriadPro-It, Myriad Pro" font-style="italic" font-weight="normal"> 9:30</tspan>  <tspan x="262" y="131">Expiry:</tspan> <tspan x="309.072" y="131" font-family="MyriadPro-Regular, Myriad Pro" font-weight="normal"> 2019-11-10 00:00</tspan>  <tspan x="262" y="155">Consumed:</tspan> <tspan x="340.256" y="155" font-family="MyriadPro-Regular, Myriad Pro" font-weight="normal"> 2019-04-01 </tspan> <tspan x="425.92" y="155" font-family="MyriadPro-It, Myriad Pro" font-style="italic" font-weight="normal">18:15</tspan> 
        </text>
        <text font-family="MyriadPro-Semibold, Myriad Pro" font-size="16" font-weight="500">
            <tspan x="49" y="81" fill="#E01E36"> Priority</tspan>  <tspan x="49" y="105" fill="#494949">Status: </tspan> <tspan x="99.528" y="105" fill="#494949" font-family="MyriadPro-Regular, Myriad Pro" font-weight="normal">In Progress</tspan> <tspan x="49" y="129" fill="#494949">Examiner:</tspan> <tspan x="117.816" y="129" fill="#494949" font-family="MyriadPro-Regular, Myriad Pro" font-weight="normal"> idir/johnsmi</tspan>
        </text>
        <path fill="#E01E36" d="M56.5 86.25l-4.408 2.318.842-4.91-3.567-3.476 4.929-.716L56.5 75l2.204 4.466 4.929.716-3.567 3.477.842 4.909z"/>
        <g>
            <text fill="#1A5A96" font-family="MyriadPro-Regular, Myriad Pro" font-size="16" transform="translate(1761 78)">
                <tspan x="69.672" y="12">Show</tspan>
            </text>
            <g fill="#5BC2E7">
                <path d="M1824 83v2h-14v-2z"/>
                <path d="M1816 77h2v14h-2z"/>
            </g>
        </g>
        <g transform="translate(839 6)">
            <circle cx="11" cy="11" r="11" fill="#494949"/>
            <text fill="#FFF" font-family="MyriadPro-Regular, Myriad Pro" font-size="16">
                <tspan x="6.896" y="16">2</tspan>
            </text>
        </g>
        <g>
            <text fill="#1A5A96" font-family="MyriadPro-Regular, Myriad Pro" font-size="16" transform="translate(50 142)">
                <tspan x="23" y="12">3 Comments</tspan>
            </text>
            <path stroke="#5BC2E7" stroke-width="2" d="M51 150h13a1 1 0 0 1 1 1v12.419a1 1 0 0 1-1.866.5l-2.165-3.75a1 1 0 0 0-.866-.5H51a1 1 0 0 1-1-1V151a1 1 0 0 1 1-1z"/>
        </g>
    </g>
</svg>
